<?xml version="1.0" encoding="utf-8"?>
<!-- Generator: Adobe Illustrator 16.0.4, SVG Export Plug-In . SVG Version: 6.00 Build 0)  -->
<!DOCTYPE svg PUBLIC "-//W3C//DTD SVG 1.1//EN" "http://www.w3.org/Graphics/SVG/1.1/DTD/svg11.dtd">
<svg version="1.1" id="レイヤー_1" xmlns="http://www.w3.org/2000/svg" xmlns:xlink="http://www.w3.org/1999/xlink" x="0px"
	 y="0px" width="100px" height="100px" viewBox="0 0 100 100" enable-background="new 0 0 100 100" xml:space="preserve">
<path fill-rule="evenodd" clip-rule="evenodd" fill="#B2B2B2" d="M100,41.847c-0.005,9.35-2.681,16.204-7.305,22.366
	c-3.119,4.16-6.74,7.851-10.667,11.253c-8.365,7.25-17.419,13.535-26.923,19.183c-1.948,1.156-4.039,2.075-6.085,3.059
	c-0.468,0.226-1.023,0.353-1.544,0.374c-1.324,0.057-2.001-0.592-1.848-2.147c0.142-1.443,0.418-2.874,0.659-4.307
	c0.271-1.615,0.473-3.231,0.253-4.876c-0.153-1.135-0.822-1.852-1.777-2.363c-1.313-0.705-2.746-1.005-4.202-1.214
	c-4.415-0.644-8.685-1.814-12.826-3.467c-5.009-2-9.628-4.666-13.741-8.158C7.352,65.912,2.679,59.012,0.765,50.404
	c-0.669-3.008-0.903-6.068-0.687-9.13c0.525-7.45,3.275-14.048,7.927-19.875c4.949-6.19,11.211-10.629,18.426-13.782
	c6.453-2.82,13.216-4.345,20.244-4.707c10.89-0.562,21.233,1.469,30.883,6.625c7.448,3.978,13.569,9.411,17.822,16.794
	C98.423,31.613,99.985,37.304,100,41.847z M49.855,42.012c3.369,4.59,6.619,9.017,9.867,13.444c0.538,0.737,1.219,1.26,2.157,1.31
	c1.635,0.089,2.893-1.216,2.894-2.996c0.004-6.436,0-12.872,0-19.31c0-0.155,0.006-0.314-0.013-0.47
	c-0.133-1.122-0.721-1.94-1.761-2.347c-1.019-0.4-1.988-0.202-2.804,0.556c-0.683,0.636-0.894,1.47-0.894,2.368
	c-0.005,3.567-0.002,7.132-0.002,10.698c0,0.239,0,0.479,0,0.883c-0.208-0.256-0.318-0.381-0.419-0.518
	c-2.131-2.906-4.263-5.813-6.395-8.72c-1.019-1.391-2.035-2.783-3.052-4.174c-0.691-0.949-1.606-1.447-2.784-1.239
	c-1.021,0.183-1.757,0.795-2.062,1.805c-0.14,0.46-0.186,0.964-0.187,1.448c-0.012,6.258-0.012,12.514-0.001,18.77
	c0.001,0.465,0.044,0.949,0.182,1.388c0.388,1.237,1.707,2.045,2.924,1.854c1.267-0.198,2.331-1.409,2.341-2.729
	c0.019-2.352,0.006-4.707,0.007-7.063C49.855,45.384,49.855,43.795,49.855,42.012z M73.533,36.85c0.213,0,0.455,0,0.696,0
	c2.198,0,4.396,0.012,6.594-0.004c1.447-0.01,2.583-1.208,2.583-2.684c0-1.508-1.113-2.682-2.585-2.687
	c-3.364-0.011-6.728-0.011-10.092,0c-1.416,0.003-2.554,1.146-2.555,2.559c-0.006,6.705-0.006,13.409,0,20.113
	c0.001,1.43,1.162,2.616,2.578,2.621c3.363,0.01,6.729,0.015,10.09-0.001c1.366-0.006,2.545-1.224,2.562-2.59
	c0.02-1.564-0.994-2.755-2.461-2.783c-2.219-0.04-4.438-0.021-6.659-0.027c-0.239,0-0.479,0-0.757,0c0-1.558,0-3.031,0-4.557
	c0.219,0,0.463,0,0.706,0c2.154,0,4.307,0.004,6.458-0.001c1.491-0.006,2.692-1.148,2.713-2.566
	c0.025-1.626-1.008-2.787-2.583-2.813c-2.174-0.035-4.35-0.017-6.524-0.021c-0.239,0-0.481,0-0.764,0
	C73.533,39.857,73.533,38.384,73.533,36.85z M23.206,51.367c0-0.35,0-0.619,0-0.885c0-5.405,0.002-10.813-0.002-16.218
	c-0.001-1.641-1.237-2.835-2.862-2.793c-1.47,0.039-2.538,1.236-2.539,2.887C17.796,40.864,17.8,47.369,17.8,53.874
	c0,0.157,0.011,0.313,0.021,0.472c0.093,1.275,1.247,2.412,2.535,2.42c3.41,0.019,6.819,0.027,10.228-0.004
	c1.601-0.014,2.873-1.748,2.473-3.277c-0.357-1.37-1.263-2.098-2.711-2.11C27.995,51.354,25.643,51.367,23.206,51.367z
	 M40.835,44.135c0-3.251,0.004-6.501,0-9.752c-0.002-1.306-0.713-2.366-1.839-2.773c-1.82-0.659-3.627,0.701-3.636,2.825
	c-0.026,6.457-0.017,12.915,0.006,19.372c0.002,0.496,0.135,1.031,0.349,1.481c0.517,1.081,1.865,1.711,2.914,1.447
	c1.28-0.323,2.198-1.454,2.202-2.778C40.843,50.685,40.835,47.41,40.835,44.135z"/>
<path fill-rule="evenodd" clip-rule="evenodd" fill="#FFFFFF" d="M100,40.628c-0.005,9.35-2.681,16.204-7.305,22.366
	c-3.119,4.159-6.74,7.852-10.667,11.254c-8.365,7.249-17.419,13.535-26.923,19.182c-1.948,1.156-4.039,2.075-6.085,3.06
	c-0.468,0.226-1.023,0.354-1.544,0.373c-1.324,0.058-2.001-0.593-1.848-2.146c0.142-1.444,0.418-2.875,0.659-4.308
	c0.271-1.615,0.473-3.23,0.253-4.875c-0.153-1.136-0.822-1.853-1.777-2.364c-1.313-0.705-2.746-1.005-4.202-1.215
	c-4.415-0.644-8.685-1.813-12.826-3.467c-5.009-1.998-9.628-4.666-13.741-8.156C7.352,64.694,2.679,57.794,0.765,49.187
	c-0.669-3.009-0.903-6.069-0.687-9.131c0.525-7.45,3.275-14.054,7.927-19.874c4.949-6.191,11.211-10.63,18.426-13.783
	c6.453-2.82,13.216-4.345,20.244-4.707c10.89-0.562,21.233,1.469,30.883,6.625c7.448,3.978,13.569,9.411,17.822,16.793
	C98.423,30.395,99.985,36.085,100,40.628z M49.855,40.794c3.369,4.59,6.619,9.017,9.867,13.444c0.538,0.737,1.219,1.259,2.157,1.309
	c1.635,0.09,2.893-1.216,2.894-2.994c0.004-6.438,0-12.873,0-19.312c0-0.154,0.006-0.314-0.013-0.469
	c-0.133-1.122-0.721-1.94-1.761-2.348c-1.019-0.4-1.988-0.201-2.804,0.555c-0.683,0.637-0.894,1.472-0.894,2.37
	c-0.005,3.566-0.002,7.131-0.002,10.698c0,0.238,0,0.478,0,0.882c-0.208-0.256-0.318-0.381-0.419-0.517
	c-2.131-2.906-4.263-5.813-6.395-8.72c-1.019-1.392-2.035-2.783-3.052-4.175c-0.691-0.949-1.606-1.447-2.784-1.238
	c-1.021,0.182-1.757,0.794-2.062,1.804c-0.14,0.461-0.186,0.964-0.187,1.448c-0.012,6.259-0.012,12.515-0.001,18.771
	c0.001,0.464,0.044,0.949,0.182,1.387c0.388,1.238,1.707,2.046,2.924,1.854c1.267-0.198,2.331-1.41,2.341-2.729
	c0.019-2.353,0.006-4.708,0.007-7.063C49.855,44.165,49.855,42.577,49.855,40.794z M73.533,35.631c0.213,0,0.455,0,0.696,0
	c2.198,0,4.396,0.013,6.594-0.003c1.447-0.011,2.583-1.208,2.583-2.684c0-1.508-1.113-2.683-2.585-2.688
	c-3.364-0.01-6.728-0.01-10.092,0c-1.416,0.003-2.554,1.146-2.555,2.56c-0.006,6.705-0.006,13.408,0,20.112
	c0.001,1.431,1.162,2.616,2.578,2.621c3.363,0.01,6.729,0.014,10.09-0.001c1.366-0.005,2.545-1.224,2.562-2.59
	c0.02-1.564-0.994-2.754-2.461-2.783c-2.219-0.04-4.438-0.021-6.659-0.027c-0.239,0-0.479,0-0.757,0c0-1.558,0-3.031,0-4.557
	c0.219,0,0.463,0,0.706,0c2.154,0,4.307,0.004,6.458-0.001c1.491-0.005,2.692-1.147,2.713-2.566
	c0.025-1.625-1.008-2.786-2.583-2.813c-2.174-0.035-4.35-0.017-6.524-0.02c-0.239,0-0.481,0-0.764,0
	C73.533,38.64,73.533,37.165,73.533,35.631z M23.206,50.148c0-0.35,0-0.619,0-0.885c0-5.404,0.002-10.812-0.002-16.217
	c-0.001-1.642-1.237-2.836-2.862-2.794c-1.47,0.039-2.538,1.237-2.539,2.888C17.796,39.646,17.8,46.15,17.8,52.656
	c0,0.155,0.011,0.312,0.021,0.471c0.093,1.276,1.247,2.414,2.535,2.42c3.41,0.02,6.819,0.027,10.228-0.003
	c1.601-0.015,2.873-1.748,2.473-3.278c-0.357-1.369-1.263-2.098-2.711-2.11C27.995,50.136,25.643,50.148,23.206,50.148z
	 M40.835,42.917c0-3.251,0.004-6.502,0-9.753c-0.002-1.306-0.713-2.365-1.839-2.773c-1.82-0.659-3.627,0.702-3.636,2.825
	c-0.026,6.457-0.017,12.915,0.006,19.373c0.002,0.496,0.135,1.032,0.349,1.48c0.517,1.08,1.865,1.712,2.914,1.447
	c1.28-0.323,2.198-1.454,2.202-2.778C40.843,49.466,40.835,46.191,40.835,42.917z"/>
<g>
	<path fill-rule="evenodd" clip-rule="evenodd" fill="#19BB03" d="M49.855,40.794c0,1.783,0,3.371,0,4.957
		c-0.001,2.355,0.012,4.711-0.007,7.063c-0.01,1.319-1.074,2.531-2.341,2.729c-1.217,0.191-2.536-0.616-2.924-1.854
		c-0.138-0.438-0.181-0.923-0.182-1.387c-0.011-6.256-0.011-12.512,0.001-18.771c0.001-0.484,0.047-0.987,0.187-1.448
		c0.305-1.01,1.041-1.622,2.062-1.804c1.178-0.209,2.093,0.289,2.784,1.238c1.017,1.392,2.033,2.783,3.052,4.175
		c2.132,2.906,4.264,5.813,6.395,8.72c0.101,0.136,0.211,0.261,0.419,0.517c0-0.404,0-0.644,0-0.882
		c0-3.567-0.003-7.132,0.002-10.698c0-0.898,0.211-1.733,0.894-2.37c0.815-0.756,1.785-0.955,2.804-0.555
		c1.04,0.407,1.628,1.226,1.761,2.348c0.019,0.154,0.013,0.314,0.013,0.469c0,6.438,0.004,12.874,0,19.312
		c-0.001,1.778-1.259,3.084-2.894,2.994c-0.938-0.05-1.619-0.571-2.157-1.309C56.475,49.811,53.225,45.384,49.855,40.794z"/>
	<path fill-rule="evenodd" clip-rule="evenodd" fill="#19BB03" d="M73.533,35.631c0,1.534,0,3.009,0,4.561c0.282,0,0.524,0,0.764,0
		c2.175,0.003,4.351-0.016,6.524,0.02c1.575,0.027,2.608,1.188,2.583,2.813c-0.021,1.419-1.222,2.562-2.713,2.566
		c-2.151,0.005-4.304,0.001-6.458,0.001c-0.243,0-0.487,0-0.706,0c0,1.525,0,2.999,0,4.557c0.278,0,0.518,0,0.757,0
		c2.221,0.007,4.44-0.013,6.659,0.027c1.467,0.029,2.48,1.219,2.461,2.783c-0.017,1.366-1.195,2.585-2.562,2.59
		c-3.361,0.015-6.727,0.011-10.09,0.001c-1.416-0.005-2.577-1.19-2.578-2.621c-0.006-6.704-0.006-13.407,0-20.112
		c0.001-1.414,1.139-2.557,2.555-2.56c3.364-0.01,6.728-0.01,10.092,0c1.472,0.005,2.585,1.18,2.585,2.688
		c0,1.476-1.136,2.673-2.583,2.684c-2.197,0.016-4.396,0.003-6.594,0.003C73.988,35.631,73.746,35.631,73.533,35.631z"/>
	<path fill-rule="evenodd" clip-rule="evenodd" fill="#19BB03" d="M23.206,50.148c2.437,0,4.789-0.013,7.14,0.007
		c1.448,0.013,2.354,0.741,2.711,2.11c0.4,1.53-0.872,3.264-2.473,3.278c-3.409,0.03-6.818,0.022-10.228,0.003
		c-1.288-0.006-2.442-1.144-2.535-2.42c-0.01-0.158-0.021-0.315-0.021-0.471c0-6.506-0.004-13.011,0.002-19.516
		c0.001-1.65,1.069-2.849,2.539-2.888c1.625-0.042,2.861,1.152,2.862,2.794c0.005,5.404,0.002,10.812,0.002,16.217
		C23.206,49.529,23.206,49.799,23.206,50.148z"/>
	<path fill-rule="evenodd" clip-rule="evenodd" fill="#19BB03" d="M40.835,42.917c0,3.274,0.008,6.549-0.004,9.821
		c-0.004,1.324-0.922,2.455-2.202,2.778c-1.049,0.265-2.397-0.367-2.914-1.447c-0.214-0.448-0.347-0.984-0.349-1.48
		c-0.022-6.458-0.032-12.916-0.006-19.373c0.009-2.123,1.815-3.484,3.636-2.825c1.126,0.408,1.837,1.468,1.839,2.773
		C40.839,36.415,40.835,39.666,40.835,42.917z"/>
</g>
<g>
	<path fill="#CBCBCB" d="M30.346,50.155c-2.351-0.02-4.703-0.007-7.14-0.007v-0.885c0-5.404,0.002-10.812-0.002-16.217
		c-0.001-1.642-1.237-2.836-2.862-2.794c-1.47,0.039-2.538,1.237-2.539,2.888C17.796,39.646,17.8,46.15,17.8,52.656
		c0,0,0,0.001,0,0.002c0-6.1-0.003-12.199,0.002-18.3c0.001-1.65,1.069-2.848,2.539-2.887c1.625-0.042,2.861,1.152,2.862,2.793
		c0.005,5.404,0.002,10.812,0.002,16.218v0.885c2.437,0,4.789-0.013,7.14,0.007c1.442,0.013,2.345,0.735,2.705,2.093
		c0.1-0.392,0.109-0.803,0.006-1.201C32.699,50.896,31.794,50.168,30.346,50.155z"/>
	<path fill="#CBCBCB" d="M49.855,46.969c0,0.874,0.001,1.747,0.002,2.621c0-1.279-0.002-2.56-0.002-3.839V46.969z"/>
	<path fill="#CBCBCB" d="M70.729,31.476c3.364-0.011,6.728-0.011,10.092,0c1.264,0.004,2.256,0.872,2.515,2.07
		c0.043-0.194,0.07-0.395,0.07-0.602c0-1.508-1.113-2.683-2.585-2.688c-3.364-0.01-6.728-0.01-10.092,0
		c-1.416,0.003-2.554,1.146-2.555,2.56c0,0.406,0,0.812,0,1.218C68.176,32.621,69.313,31.479,70.729,31.476z"/>
	<path fill="#CBCBCB" d="M38.996,30.391c-1.82-0.659-3.627,0.702-3.636,2.825c-0.014,3.398-0.017,6.796-0.014,10.194
		c-0.002-2.991,0.002-5.984,0.014-8.976c0.009-2.124,1.815-3.484,3.636-2.825c1.126,0.407,1.837,1.468,1.839,2.773
		c0.003,2.917,0.001,5.833,0,8.75c0-0.071,0-0.144,0-0.216c0-3.251,0.004-6.502,0-9.753C40.833,31.858,40.122,30.799,38.996,30.391z
		"/>
	<path fill="#CBCBCB" d="M80.821,40.211c-2.174-0.035-4.35-0.017-6.524-0.02h-0.764v1.218h0.764
		c2.175,0.004,4.351-0.015,6.524,0.021c1.34,0.022,2.28,0.87,2.518,2.123c0.04-0.17,0.062-0.347,0.065-0.528
		C83.43,41.399,82.396,40.238,80.821,40.211z"/>
	<path fill="#CBCBCB" d="M80.943,50.176c-2.219-0.04-4.438-0.021-6.659-0.027h-0.757v1.219h0.757
		c2.221,0.007,4.44-0.013,6.659,0.027c1.241,0.024,2.152,0.886,2.393,2.099c0.04-0.174,0.065-0.352,0.068-0.534
		C83.424,51.395,82.41,50.205,80.943,50.176z"/>
	<path fill="#CBCBCB" d="M63,30.425c-1.019-0.4-1.988-0.201-2.804,0.555c-0.683,0.637-0.894,1.472-0.894,2.37
		c-0.005,3.566-0.002,7.131-0.002,10.698v0.882c-0.208-0.256-0.318-0.381-0.419-0.517c-2.131-2.906-4.263-5.813-6.395-8.72
		c-1.019-1.392-2.035-2.783-3.052-4.175c-0.691-0.949-1.606-1.447-2.784-1.238c-1.021,0.182-1.757,0.794-2.062,1.804
		c-0.14,0.461-0.186,0.964-0.187,1.448c-0.012,6.259-0.012,12.515-0.001,18.771c0,0,0,0.001,0,0.003
		c-0.009-5.852-0.01-11.702,0.001-17.555c0.001-0.484,0.047-0.988,0.187-1.448c0.305-1.01,1.041-1.622,2.062-1.805
		c1.178-0.208,2.093,0.29,2.784,1.239c1.017,1.391,2.033,2.783,3.052,4.174c2.132,2.906,4.264,5.813,6.395,8.72
		c0.101,0.137,0.211,0.262,0.419,0.518v-0.883c0-3.566-0.003-7.131,0.002-10.698c0-0.898,0.211-1.732,0.894-2.368
		c0.815-0.758,1.785-0.956,2.804-0.556c1.04,0.406,1.628,1.225,1.761,2.347c0.009,0.077,0.012,0.155,0.013,0.233
		c0-0.327,0-0.654,0-0.982c0-0.154,0.006-0.314-0.013-0.469C64.628,31.65,64.04,30.832,63,30.425z"/>
</g>
</svg>
