<?xml version="1.0" encoding="utf-8"?>
<!-- Generator: Adobe Illustrator 16.0.4, SVG Export Plug-In . SVG Version: 6.00 Build 0)  -->
<!DOCTYPE svg PUBLIC "-//W3C//DTD SVG 1.1//EN" "http://www.w3.org/Graphics/SVG/1.1/DTD/svg11.dtd">
<svg version="1.1" id="レイヤー_1" xmlns="http://www.w3.org/2000/svg" xmlns:xlink="http://www.w3.org/1999/xlink" x="0px"
	 y="0px" width="50px" height="50px" viewBox="0 0 50 50" enable-background="new 0 0 50 50" xml:space="preserve">
<g>
	<path fill="#5078BB" d="M50,25.001C50,38.808,38.809,50,25.003,50C11.193,50,0,38.808,0,25.001C0,11.193,11.193,0,25.003,0
		C38.809,0,50,11.193,50,25.001z"/>
	<path fill="#FFFFFF" d="M17.225,19.374h3.435v-3.34c0-1.475,0.041-3.749,1.108-5.152c1.126-1.492,2.679-2.504,5.335-2.504
		c4.337,0,6.163,0.618,6.163,0.618l-0.86,5.095c0,0-1.434-0.418-2.768-0.418c-1.336,0-2.536,0.481-2.536,1.818v3.884h5.484
		l-0.384,4.972h-5.1v17.276H20.66V24.346h-3.435V19.374z"/>
</g>
</svg>
