<?xml version="1.0" encoding="utf-8"?>
<!-- Generator: Adobe Illustrator 16.0.4, SVG Export Plug-In . SVG Version: 6.00 Build 0)  -->
<!DOCTYPE svg PUBLIC "-//W3C//DTD SVG 1.1//EN" "http://www.w3.org/Graphics/SVG/1.1/DTD/svg11.dtd">
<svg version="1.1" id="レイヤー_1" xmlns="http://www.w3.org/2000/svg" xmlns:xlink="http://www.w3.org/1999/xlink" x="0px"
	 y="0px" width="50px" height="50px" viewBox="0 0 50 50" enable-background="new 0 0 50 50" xml:space="preserve">
<g>
	<circle fill="#29ABE2" cx="25" cy="25.001" r="25"/>
	<path fill="#FFFFFF" d="M40.241,17.472c-1.014,0.451-2.1,0.753-3.242,0.893c1.166-0.701,2.061-1.808,2.48-3.126
		c-1.09,0.646-2.3,1.118-3.588,1.37c-1.027-1.099-2.496-1.784-4.121-1.784c-3.119,0-5.649,2.529-5.649,5.645
		c0,0.447,0.049,0.877,0.145,1.293c-4.694-0.237-8.856-2.488-11.646-5.907c-0.485,0.839-0.764,1.809-0.764,2.845
		c0,1.957,0.997,3.689,2.513,4.705c-0.927-0.031-1.797-0.29-2.56-0.71v0.068c0,2.741,1.947,5.025,4.534,5.543
		c-0.477,0.134-0.976,0.198-1.491,0.198c-0.361,0-0.72-0.035-1.06-0.105c0.716,2.248,2.802,3.885,5.275,3.927
		c-1.934,1.518-4.37,2.418-7.02,2.418c-0.453,0-0.905-0.023-1.345-0.077c2.499,1.604,5.469,2.539,8.662,2.539
		c10.393,0,16.073-8.611,16.073-16.076c0-0.246-0.005-0.491-0.017-0.731C38.529,19.602,39.486,18.604,40.241,17.472"/>
</g>
</svg>
